<svg xmlns="http://www.w3.org/2000/svg" width="255.465" height="169.989">
  <defs>
    <style>
      .cib{fill:#2f2e41}.cic{fill:transparent;stroke:#3f3d56;stroke-miterlimit:10}.cid{fill:#6c63ff}.cie{fill:#fbbebe}.ci{opacity:.1}.cig{fill:#3f3d56}.cih{fill:#a0616a}.cii{fill:#ff6584}.cij{opacity:.3}
    </style>
  </defs>
  <path fill="#f2f2f2" d="M255.451 97.789a73.723 73.723 0 0 1-42.027 65.217 72.442 72.442 0 0 1-31.131 6.984q-2.322 0-4.611-.144a798.565 798.565 0 0 0-99.9 0q-2.288.143-4.611.144a72.418 72.418 0 0 1-35.668-9.333A73.741 73.741 0 0 1 .012 97.789c-.811-41.255 31.845-74.984 72.817-75.174a72.762 72.762 0 0 1 54.9 24.589 72.762 72.762 0 0 1 54.9-24.589c40.977.19 73.633 33.919 72.822 75.174z"/>
  <path d="M213.425 163.006a72.441 72.441 0 0 1-31.131 6.984q-2.322 0-4.611-.144a798.56 798.56 0 0 0-99.9 0q-2.288.143-4.611.144a72.418 72.418 0 0 1-35.668-9.333c16.465-7.133 48.626-11.977 85.606-11.977 40.915-.001 75.924 5.927 90.315 14.326z" class="cib"/>
  <path d="M162.748 60.89a5.9 5.9 0 0 0-6.13-.971c-3.05 1.33-4.378 5.066-4.164 8.386s1.6 6.435 2.493 9.639a22.743 22.743 0 0 1 .105 13.208c-1.41 4.24-4.729 7.977-9.034 9.176-4 1.113-8.234 0-12.23-1.115" class="cic"/>
  <path d="M169.982 54.256a3.484 3.484 0 0 0-6.956-.4l-.4 6.956 6.956.4a3.484 3.484 0 0 0 .4-6.956zm-7.48 18.112a3.484 3.484 0 1 0-6.956-.4l-.4 6.956 6.956.4a3.484 3.484 0 0 0 .4-6.956zm-10.023-19.403a3.484 3.484 0 1 0-4.475 5.341l5.341 4.475 4.475-5.341a3.484 3.484 0 1 0-5.341-4.475z" class="cid"/>
  <path d="M194.083 57.719a5.9 5.9 0 0 0-5.65-2.569c-3.294.47-5.569 3.717-6.248 6.974s-.175 6.627-.165 9.954a22.743 22.743 0 0 1-3.417 12.759c-2.489 3.711-6.683 6.429-11.152 6.438-4.148.008-7.936-2.2-11.491-4.333" class="cic"/>
  <path d="M202.823 53.252a3.485 3.485 0 0 0-6.6-2.24l-2.24 6.6 6.6 2.24a3.485 3.485 0 0 0 2.24-6.6zm-12.034 15.465a3.485 3.485 0 1 0-6.6-2.24l-2.24 6.6 6.6 2.24a3.485 3.485 0 0 0 2.24-6.6zm-4.493-21.375a3.484 3.484 0 1 0-5.736 3.956l3.956 5.736 5.736-3.956a3.484 3.484 0 1 0-3.956-5.736z" class="cid"/>
  <path d="M179.069 11.272a5.9 5.9 0 0 1 5.722 2.4c1.892 2.737 1.054 6.612-.876 9.322s-4.746 4.629-7.194 6.881a22.743 22.743 0 0 0-7.045 11.173c-1.034 4.347-.18 9.272 2.849 12.558 2.811 3.05 7 4.333 10.984 5.492" class="cic"/>
  <path d="M176.408 1.823a3.484 3.484 0 0 1 6.125 3.322l-3.322 6.125-6.125-3.322a3.484 3.484 0 0 1 3.322-6.125zm-3.174 19.336a3.484 3.484 0 1 1 6.125 3.322l-3.322 6.125-6.127-3.322a3.484 3.484 0 0 1 3.322-6.125zm18.737-11.216a3.485 3.485 0 0 1 .992 6.9l-6.9.992-.992-6.9a3.485 3.485 0 0 1 6.9-.992z" class="cid"/>
  <path d="M113.098 85.005h6.419v3.338h-6.419z" class="cie"/>
  <path d="M113.098 85.005h6.419v3.338h-6.419z" class="cif"/>
  <circle cx="8.216" cy="8.216" r="8.216" class="cib" transform="translate(93.071 20.56)"/>
  <path d="M119.901 83.334s-2.568-.77-3.081-.514 1.8 2.311 1.8 2.311z" class="cie"/>
  <path d="M119.901 83.334s-2.568-.77-3.081-.514 1.8 2.311 1.8 2.311z" class="cif"/>
  <path d="M102.186 149.064s5.905.77 6.932.77 3.851 1.027 2.311 2.311-11.3 3.081-12.581 2.311-3.081-3.081-1.8-3.338a41.508 41.508 0 0 0 5.138-2.054z" class="cig"/>
  <path d="M91.659 158.564l-2.052 3.594 2.568 1.284 4.878 1.027 2.568-3.338-1.027-3.851z" class="cie"/>
  <path d="M105.267 132.118s-3.338 14.121-2.824 14.892 1.54 2.824.513 3.594-5.135 1.027-5.135 1.027l1.284-7.446 1.8-8.986z" class="cib"/>
  <path d="M96.023 102.335l3.338 15.148s.513 7.446-.77 10.27-8.216 32.607-8.216 32.607 7.189.257 8.73-.513 4.139-18.554 4.139-18.554 8.442-16.877 8.185-20.215 1.276-20.293-.9-21.572-14.506 2.829-14.506 2.829z" class="cib"/>
  <path d="M96.538 163.185l3.081-3.081s8.216 4.108 9.5 4.365 4.108 2.311 1.284 3.081-13.351.257-15.919 0-7.7-.513-6.932-2.054a56.179 56.179 0 0 0 2.054-6.932s.71-.981 1.125.28.672 3.058 1.7 3.058a19.629 19.629 0 0 1 4.107 1.283z" class="cig"/>
  <path d="M136.077 97.97l7.189-.514 4.878 2.568-.514 3.081-2.054.514s-5.649-2.311-8.986-1.541-.513-4.108-.513-4.108z" class="cih"/>
  <path d="M144.55 98.998s2.824 3.089 0 4.24c0 0 .513.895 2.568 1.151s4.878 2.054 5.648 2.054 4.108-.513 2.054-3.338-10.27-8.986-10.27-8.986-2.311-1.027-3.081 1.027a9.985 9.985 0 0 1-1.177 2.523s3.744.815 4.258 1.329z" class="cib"/>
  <path d="M122.983 123.645s2.311 8.73 2.311 9.243 3.081-2.054 3.081-2.054l.514-4.622s-2.054-2.054-2.054-3.338-3.852.771-3.852.771z" class="cih"/>
  <path d="M127.604 129.808s-1.8 2.311-3.081 1.54l.77 8.729s.513 4.365 2.311 2.568 3.594-10.784 3.594-10.784 2.568-5.392.513-6.162a21.381 21.381 0 0 0-3.594-1.027s0 5.393-.513 5.136z" class="cib"/>
  <path d="M110.915 100.538l7.7 15.919s2.568 8.986 3.594 9.243 4.878-1.541 5.392-1.8-4.365-10.27-4.365-12.067-5.905-11.81-5.905-11.81z" class="cii"/>
  <path d="M110.915 100.538l7.7 15.919s2.568 8.986 3.594 9.243 4.878-1.541 5.392-1.8-4.365-10.27-4.365-12.067-5.905-11.81-5.905-11.81z" class="cif"/>
  <path d="M116.307 72.809a34.494 34.494 0 0 1-.77 8.986c-1.027 3.595 1.284 15.405 1.284 15.405a30.173 30.173 0 0 0 4.878 0c1.027-.257 14.892-.513 15.662 0s.513 9.5 0 9.243-13.865-3.081-20.283-2.054-7.189-.513-7.446-1.027-4.622-14.378-4.622-14.378l-1.54-6.676-2.054-7.189 1.284-6.932z" class="cii"/>
  <circle cx="6.932" cy="6.932" r="6.932" class="cih" transform="translate(93.842 25.439)"/>
  <circle cx="6.932" cy="6.932" r="6.932" class="cie" transform="translate(80.876 41.742)"/>
  <path d="M102.699 37.121s4.621 3.081 3.851 4.878a15.771 15.771 0 0 1-2.824 3.851l-.257 2.824 3.851 1.284 9.757.514s-.513-8.73-3.594-11.04-6.676-3.851-7.189-5.905-3.595 3.594-3.595 3.594z" class="cih"/>
  <path d="M115.438 43.453a4.016 4.016 0 0 0-7.387.665 3.1 3.1 0 0 0 .3 2.5c1.8 3.081 3.081 5.392 3.081 5.392l5.648-.514s.109-4.773-1.642-8.043z" class="cih"/>
  <path d="M104.57 44.93s-6.749 4.258-6.235 7.083a75.587 75.587 0 0 1 1.027 9.5c0 1.8 1.8 7.446 4.365 8.473s2.568-1.8 6.162 1.54 7.446 4.878 7.189 5.392 1.027-4.621-1.027-6.676-4.365-7.959-2.311-10.527 3.851-9.243 3.851-9.243a1.53 1.53 0 0 0-1.8-1.284c-1.541.257-11.04-.77-11.554-2.054a2.168 2.168 0 0 1 .333-2.204z" class="cib"/>
  <path d="M103.612 47.106s7.047-7.675 8.073-7.419 3.985 3.3 3.985 3.3l-3.985-2.782-8.073 7.338z" class="cib"/>
  <path d="M93.711 49.958s.964 10.384 2.279 11.354-9.982.713-9.982.713 2.568-7.959 1.027-8.986 6.676-3.081 6.676-3.081z" class="cie"/>
  <path d="M96.281 58.431s-8.73-2.311-9.757-1.027-3.081 12.324-3.081 12.324a86.606 86.606 0 0 0 2.824 12.838c1.8 5.392 4.108 24.391 5.905 24.391s4.878-2.824 5.648-2.824 5.392-2.311 8.216-1.8a10 10 0 0 0 4.878-.257s-1.284-10.784-4.365-13.608-4.622-22.337-4.622-22.337-4.363-8.213-5.646-7.7z" class="cig"/>
  <path d="M109.632 82.822s2.919 3.962 5.824 4.164l1.621-.056s-2.568 6.676-1.284 6.932 5.135-4.878 3.851-7.7-5.135-7.189-5.135-7.189z" class="cie"/>
  <path d="M119.902 82.822s-4.365 4.108-2.568 5.905 4.108 0 4.108 0 1.798-2.567-1.54-5.905z" class="cie"/>
  <path d="M119.902 82.822s-4.365 4.108-2.568 5.905 4.108 0 4.108 0 1.798-2.567-1.54-5.905z" class="cif"/>
  <circle cx="8.216" cy="8.216" r="8.216" class="cib" transform="translate(94.869 19.02)"/>
  <circle cx="4.878" cy="4.878" r="4.878" class="cib" transform="translate(102.058 15.425)"/>
  <path d="M103.084 18.763a4.878 4.878 0 0 1 4.364-4.851 4.933 4.933 0 0 0-.513-.027 4.878 4.878 0 1 0 .513 9.729 4.878 4.878 0 0 1-4.365-4.851z" class="cib"/>
  <ellipse cx="6.547" cy="4.878" class="cib" rx="6.547" ry="4.878" transform="translate(93.842 25.695)"/>
  <path d="M88.097 46.101a2.7 2.7 0 0 0-.123 1.462 7.724 7.724 0 0 0 .656 1.007 1.319 1.319 0 0 1-.545 1.873 1.835 1.835 0 0 0-1.261-.213.821.821 0 0 0-.636.89c.09.593.781.973 1.133 1.5a3.885 3.885 0 0 1 .429 1.273 11.378 11.378 0 0 1 .512 2.072 1.357 1.357 0 0 1-.989 1.524 1.984 1.984 0 0 1-1.617-.784c-.418-.476-.7-1.039-1.083-1.54-1.244-1.627-3.37-2.385-4.81-3.861a7.148 7.148 0 0 1-1.576-6.927 4.466 4.466 0 0 1 1.515-2.407 19.746 19.746 0 0 1 2.826-1.26 18.538 18.538 0 0 0 2.6-1.95 4.213 4.213 0 0 1 3.122-1 24.987 24.987 0 0 1 2.425.783 3.924 3.924 0 0 0 2.674-.221l-.76.816a3.872 3.872 0 0 0 1.723.261 2.089 2.089 0 0 1-1.157 1.045 2.076 2.076 0 0 0 1.442.435 4.293 4.293 0 0 1-2.04 1.54c-.426.11-.89.1-1.33.177a6.751 6.751 0 0 0-2.491 1.133c-.4.255-.907.544-.9 1.073-.003.447.353.807.261 1.299z" class="cib"/>
  <path d="M91.146 60.999s-2.311 8.473 1.8 10.27 12.575 8.471 14.119 10.783a8.622 8.622 0 0 0 3.338 3.081s6.162-5.135 4.878-6.676-6.419-6.162-6.419-6.162-13.094-14.12-17.716-11.296z" class="cig"/>
  <path d="M111.429 61.255s-9.433-2.7-12.29-3.146-10.3.321-8.763 1.605 10.527 2.311 10.527 2.311l10.784 4.108z" class="cih"/>
  <path d="M111.429 50.728s.77 5.135.77 6.932 1.284 3.338.257 3.338-1.8-1.027-1.8 0-1.54 7.189 0 7.189 5.392-1.027 6.162-1.027a2.988 2.988 0 0 0 3.081-3.338c-.257-2.824-1.284-5.905-.77-6.419s.77-3.081.257-3.595a23.959 23.959 0 0 1-1.8-3.851z" class="cib"/>
  <g class="cij">
    <path d="M165.698 102.99a1.8 1.8 0 1 0-.429 3.573l3.573.429.429-3.573a1.8 1.8 0 0 0-3.573-.429z" class="cid"/>
  </g>
  <g class="cij">
    <path d="M208.762 85.819a1.8 1.8 0 0 0-1.767 3.135l3.135 1.767 1.767-3.135a1.8 1.8 0 0 0-3.135-1.767z" class="cid"/>
  </g>
  <g class="cij">
    <path d="M189.576 110.179a1.8 1.8 0 1 0-.429 3.573l3.573.429.429-3.573a1.8 1.8 0 0 0-3.573-.429z" class="cid"/>
  </g>
</svg>