<?xml version="1.0" encoding="UTF-8" standalone="no"?>
<!DOCTYPE svg PUBLIC "-//W3C//DTD SVG 1.1//EN" "http://www.w3.org/Graphics/SVG/1.1/DTD/svg11.dtd">
<svg version="1.1" xmlns="http://www.w3.org/2000/svg" xmlns:xlink="http://www.w3.org/1999/xlink" preserveAspectRatio="xMidYMid meet" viewBox="0 0 32 32" width="32" height="32"><defs><path d="M-0.02 24.66L-0.02 5.69L32 5.69L32 24.66L-0.02 24.66ZM15.79 18.34L2.99 10.55L2.99 22.13L29 22.13L29 10.25L15.83 18.26L15.79 18.34ZM15.75 14.66L26.34 8.22L5.16 8.22L15.75 14.66Z" id="fshCcBX0i"></path><path d="M28.74 19.09C30.83 19.7 32.03 21.88 31.43 23.95C29.75 29.68 21.33 30.3 21.29 30.45C21.29 30.45 21.29 30.45 21.29 30.45C21.33 30.3 14.59 25.23 16.27 19.5C16.88 17.43 19.06 16.25 21.16 16.87C23.25 17.48 24.52 19.45 23.91 21.52C24.52 19.45 26.64 18.48 28.74 19.09Z" id="b530H19lO"></path></defs><g><g><g><use xlink:href="#fshCcBX0i" opacity="1" fill="#cfa3ff" fill-opacity="1"></use></g><g><use xlink:href="#b530H19lO" opacity="1" fill="#ff6483" fill-opacity="1"></use></g></g></g></svg>