<?xml version="1.0" encoding="UTF-8" standalone="no"?>
<!DOCTYPE svg PUBLIC "-//W3C//DTD SVG 1.1//EN" "http://www.w3.org/Graphics/SVG/1.1/DTD/svg11.dtd">
<svg version="1.1" xmlns="http://www.w3.org/2000/svg" xmlns:xlink="http://www.w3.org/1999/xlink" preserveAspectRatio="xMidYMid meet" viewBox="0 0 32 32" width="32" height="32"><defs><path d="M1.63 25.22L1.63 8.19L30.37 8.19L30.37 25.22L1.63 25.22ZM15.82 19.54L4.33 12.55L4.33 22.95L27.67 22.95L27.67 12.29L15.85 19.47L15.82 19.54ZM15.78 16.24L25.29 10.46L6.28 10.46L15.78 16.24Z" id="aaB8dGiDE"></path><path d="M27.54 18.58C29.7 19.12 31.03 21.28 30.5 23.42C29.04 29.33 20.49 30.33 20.44 30.49C20.44 30.49 20.44 30.49 20.44 30.49C20.49 30.33 13.39 25.46 14.85 19.54C15.38 17.41 17.56 16.11 19.72 16.64C21.88 17.18 23.26 19.13 22.73 21.27C23.26 19.13 25.38 18.05 27.54 18.58Z" id="gaXTlOsQj"></path></defs><g><g><g><use xlink:href="#aaB8dGiDE" opacity="1" fill="#cfa3ff" fill-opacity="1"></use></g><g><use xlink:href="#gaXTlOsQj" opacity="1" fill="#ff6483" fill-opacity="1"></use></g></g></g></svg>