<?xml version="1.0" encoding="UTF-8" standalone="no"?>
<!DOCTYPE svg PUBLIC "-//W3C//DTD SVG 1.1//EN" "http://www.w3.org/Graphics/SVG/1.1/DTD/svg11.dtd">
<svg version="1.1" xmlns="http://www.w3.org/2000/svg" xmlns:xlink="http://www.w3.org/1999/xlink" preserveAspectRatio="xMidYMid meet" viewBox="0 0 280 150" width="280" height="150"><defs><path d="M260.57 2.5C269.92 2.5 277.5 10.08 277.5 19.43C277.5 45.05 277.5 104.95 277.5 130.57C277.5 139.92 269.92 147.5 260.57 147.5C208.95 147.5 71.05 147.5 19.43 147.5C10.08 147.5 2.5 139.92 2.5 130.57C2.5 104.95 2.5 45.05 2.5 19.43C2.5 10.08 10.08 2.5 19.43 2.5C71.05 2.5 208.95 2.5 260.57 2.5Z" id="c13skFJ1H"></path><path d="M258.28 13.03C263.12 13.03 267.04 16.95 267.04 21.78C267.04 28.43 267.04 39.63 267.04 46.27C267.04 51.11 263.12 55.03 258.28 55.03C209.22 55.03 70.78 55.03 21.72 55.03C16.88 55.03 12.96 51.11 12.96 46.27C12.96 39.63 12.96 28.43 12.96 21.78C12.96 16.95 16.88 13.03 21.72 13.03C70.78 13.03 209.22 13.03 258.28 13.03Z" id="cXycLGy2B"></path></defs><g><g><g><g><filter id="shadow11984979" x="-7.5" y="-7.5" width="295" height="165" filterUnits="userSpaceOnUse" primitiveUnits="userSpaceOnUse"><feFlood></feFlood><feComposite in2="SourceAlpha" operator="in"></feComposite><feGaussianBlur stdDeviation="1.41"></feGaussianBlur><feOffset dx="0" dy="0" result="afterOffset"></feOffset><feFlood flood-color="#000000" flood-opacity="0.19"></feFlood><feComposite in2="afterOffset" operator="in"></feComposite><feMorphology operator="dilate" radius="1"></feMorphology><feComposite in2="SourceAlpha" operator="out"></feComposite></filter><path d="M260.57 2.5C269.92 2.5 277.5 10.08 277.5 19.43C277.5 45.05 277.5 104.95 277.5 130.57C277.5 139.92 269.92 147.5 260.57 147.5C208.95 147.5 71.05 147.5 19.43 147.5C10.08 147.5 2.5 139.92 2.5 130.57C2.5 104.95 2.5 45.05 2.5 19.43C2.5 10.08 10.08 2.5 19.43 2.5C71.05 2.5 208.95 2.5 260.57 2.5Z" id="a33I8p1d8n" fill="white" fill-opacity="1" filter="url(#shadow11984979)"></path></g><use xlink:href="#c13skFJ1H" opacity="1" fill="#b9aef5" fill-opacity="1"></use></g><g><use xlink:href="#cXycLGy2B" opacity="1" fill="#fff2fb" fill-opacity="1"></use></g></g></g></svg>